<svg width="512" height="512" viewBox="0 0 512 512" fill="none" xmlns="http://www.w3.org/2000/svg">
  <!-- Background gradient -->
  <rect width="512" height="512" rx="120" fill="url(#gradient)"/>
  
  <!-- Sparkles icon -->
  <g transform="translate(128, 128)">
    <path d="M128 0L139.5 52.5L192 64L139.5 75.5L128 128L116.5 75.5L64 64L116.5 52.5L128 0Z" fill="white"/>
    <path d="M192 128L201 166L239 175L201 184L192 222L183 184L145 175L183 166L192 128Z" fill="white" opacity="0.8"/>
    <path d="M64 128L73 166L111 175L73 184L64 222L55 184L17 175L55 166L64 128Z" fill="white" opacity="0.8"/>
  </g>
  
  <!-- Gradient definition -->
  <defs>
    <linearGradient id="gradient" x1="0" y1="0" x2="512" y2="512" gradientUnits="userSpaceOnUse">
      <stop offset="0%" stop-color="#6366f1"/>
      <stop offset="50%" stop-color="#8b5cf6"/>
      <stop offset="100%" stop-color="#ec4899"/>
    </linearGradient>
  </defs>
</svg>
